<?xml version="1.0" encoding="UTF-8" standalone="no"?>
<svg
   width="182"
   height="93"
   viewBox="0 0 182 93"
   fill="none"
   version="1.1"
   id="svg7"
   sodipodi:docname="test1.svg"
   inkscape:version="1.4.2 (f4327f4, 2025-05-13)"
   xmlns:inkscape="http://www.inkscape.org/namespaces/inkscape"
   xmlns:sodipodi="http://sodipodi.sourceforge.net/DTD/sodipodi-0.dtd"
   xmlns="http://www.w3.org/2000/svg"
   xmlns:svg="http://www.w3.org/2000/svg">
  <sodipodi:namedview
     id="namedview7"
     pagecolor="#ffffff"
     bordercolor="#000000"
     borderopacity="0.25"
     inkscape:showpageshadow="2"
     inkscape:pageopacity="0.0"
     inkscape:pagecheckerboard="0"
     inkscape:deskcolor="#d1d1d1"
     inkscape:zoom="8.4472649"
     inkscape:cx="71.384053"
     inkscape:cy="38.059657"
     inkscape:window-width="2560"
     inkscape:window-height="1346"
     inkscape:window-x="2869"
     inkscape:window-y="164"
     inkscape:window-maximized="1"
     inkscape:current-layer="svg7" />
  <g
     filter="url(#filter0_d_27_10)"
     id="g3"
     transform="translate(0.82867059,19.296187)">
    <mask
       id="path-1-outside-1_27_10"
       maskUnits="userSpaceOnUse"
       x="13"
       y="4"
       width="157"
       height="50"
       fill="#000000">
      <rect
         fill="#ffffff"
         x="13"
         y="4"
         width="157"
         height="50"
         id="rect1" />
      <path
         d="M 21.9267,52 V 6.172 h 1.71 V 52 Z m -7.524,0 V 6.172 h 1.71 V 52 Z m 3.762,0 V 6.172 h 1.71 V 52 Z m 18.43,0 V 6.172 h 1.71 V 52 Z m -7.524,0 V 6.172 h 1.71 V 52 Z m 3.762,0 V 6.172 h 1.71 V 52 Z m 40.641,0 V 6.172 h 1.71 V 52 Z m -7.524,0 V 6.172 h 1.71 V 52 Z m 3.762,0 V 6.172 h 1.71 V 52 Z M 54.2647,25.552 53.2387,24.013 63.8977,8.566 v 3.021 z m 2.28,9.861 -16.188,-23.142 V 9.364 l 17.271,24.567 z m 0.057,-6.555 -1.026,-1.539 8.322,-11.856 v 2.964 z m -2.337,9.918 -13.908,-19.836 v -3.021 l 14.934,21.318 z m 4.617,-6.669 -1.026,-1.482 6.042,-8.607 v 2.964 z m -6.897,9.918 -11.628,-16.53 v -3.021 l 12.654,18.069 z M 86.9139,52 103.501,6.172 h 1.824 L 88.7379,52 Z m -7.98,0 16.587,-45.828 h 1.767 L 80.7579,52 Z m 3.99,0 16.53,-45.828 h 1.8811 L 84.7479,52 Z M 120.316,52 105.439,10.903 106.351,8.338 122.14,52 Z m -3.99,0 -12.825,-35.511 0.855,-2.622 L 118.15,52 Z m -3.99,0 -10.83,-29.982 0.912,-2.565 L 114.16,52 Z m -16.1311,-15.162 0.627,-1.71 h 7.5241 l 0.627,1.71 z m -1.368,3.819 0.627,-1.71 h 10.2601 l 0.627,1.71 z m -1.368,3.762 0.627,-1.71 h 12.9961 l 0.627,1.71 z M 146.332,28.63 v -1.71 h 22.401 v 1.71 z m 0,3.762 v -1.71 h 22.401 v 1.71 z m 0,3.762 v -1.71 h 22.401 v 1.71 z m -0.114,16.701 c -3.572,0 -6.821,-0.608 -9.747,-1.824 -2.888,-1.254 -5.377,-2.964 -7.467,-5.13 -2.09,-2.166 -3.705,-4.674 -4.845,-7.524 -1.14,-2.888 -1.71,-5.985 -1.71,-9.291 0,-3.306 0.57,-6.384 1.71,-9.234 1.14,-2.888 2.755,-5.415 4.845,-7.581 2.09,-2.166 4.579,-3.857 7.467,-5.073 2.926,-1.254 6.175,-1.881 9.747,-1.881 4.56,0 8.588,1.007 12.084,3.021 3.496,1.976 6.232,4.617 8.208,7.923 l -1.482,0.969 c -1.824,-3.078 -4.351,-5.548 -7.581,-7.41 -3.192,-1.862 -6.935,-2.793 -11.229,-2.793 -3.344,0 -6.365,0.57 -9.063,1.71 -2.698,1.14 -5.016,2.717 -6.954,4.731 -1.938,2.014 -3.439,4.37 -4.503,7.068 -1.026,2.66 -1.539,5.51 -1.539,8.55 0,3.04 0.513,5.909 1.539,8.607 1.064,2.66 2.565,4.997 4.503,7.011 1.938,2.014 4.256,3.591 6.954,4.731 2.698,1.14 5.719,1.71 9.063,1.71 3.268,0 6.232,-0.551 8.892,-1.653 2.66,-1.102 4.959,-2.641 6.897,-4.617 1.938,-1.976 3.439,-4.237 4.503,-6.783 h 1.881 c -1.102,2.888 -2.717,5.453 -4.845,7.695 -2.09,2.204 -4.598,3.933 -7.524,5.187 -2.926,1.254 -6.194,1.881 -9.804,1.881 z m 0,-7.524 c -3.382,0 -6.289,-0.722 -8.721,-2.166 -2.432,-1.482 -4.294,-3.458 -5.586,-5.928 -1.292,-2.47 -1.938,-5.187 -1.938,-8.151 0,-3.002 0.646,-5.719 1.938,-8.151 1.292,-2.47 3.154,-4.427 5.586,-5.871 2.432,-1.482 5.339,-2.223 8.721,-2.223 3.268,0 6.08,0.703 8.436,2.109 2.394,1.368 4.237,3.192 5.529,5.472 l -1.482,0.969 c -1.14,-2.052 -2.774,-3.686 -4.902,-4.902 -2.128,-1.254 -4.655,-1.881 -7.581,-1.881 -3.04,0 -5.662,0.665 -7.866,1.995 -2.166,1.292 -3.819,3.04 -4.959,5.244 -1.14,2.166 -1.71,4.579 -1.71,7.239 0,2.66 0.57,5.092 1.71,7.296 1.14,2.166 2.793,3.914 4.959,5.244 2.204,1.292 4.826,1.938 7.866,1.938 2.622,0 4.921,-0.494 6.897,-1.482 1.976,-1.026 3.553,-2.356 4.731,-3.99 h 2.166 c -1.33,2.204 -3.173,3.971 -5.529,5.301 -2.356,1.292 -5.111,1.938 -8.265,1.938 z m 0,3.762 c -3.04,0 -5.795,-0.513 -8.265,-1.539 -2.432,-1.064 -4.541,-2.508 -6.327,-4.332 -1.748,-1.824 -3.097,-3.933 -4.047,-6.327 -0.912,-2.432 -1.368,-5.035 -1.368,-7.809 0,-2.774 0.456,-5.358 1.368,-7.752 0.95,-2.432 2.299,-4.56 4.047,-6.384 1.786,-1.862 3.895,-3.306 6.327,-4.332 2.47,-1.026 5.225,-1.539 8.265,-1.539 3.914,0 7.334,0.855 10.26,2.565 2.964,1.672 5.263,3.895 6.897,6.669 l -1.482,0.969 c -1.52,-2.546 -3.61,-4.579 -6.27,-6.099 -2.66,-1.558 -5.795,-2.337 -9.405,-2.337 -3.724,0 -6.973,0.817 -9.747,2.451 -2.736,1.634 -4.845,3.838 -6.327,6.612 -1.482,2.736 -2.223,5.795 -2.223,9.177 0,3.344 0.741,6.403 2.223,9.177 1.482,2.774 3.591,4.978 6.327,6.612 2.774,1.634 6.023,2.451 9.747,2.451 3.762,0 7.03,-0.836 9.804,-2.508 2.774,-1.71 4.883,-3.952 6.327,-6.726 h 1.938 c -1.52,3.268 -3.838,5.928 -6.954,7.98 -3.116,2.014 -6.821,3.021 -11.115,3.021 z"
         id="path1" />
    </mask>
    <path
       d="M 21.9267,52 V 6.172 h 1.71 V 52 Z m -7.524,0 V 6.172 h 1.71 V 52 Z m 3.762,0 V 6.172 h 1.71 V 52 Z m 18.43,0 V 6.172 h 1.71 V 52 Z m -7.524,0 V 6.172 h 1.71 V 52 Z m 3.762,0 V 6.172 h 1.71 V 52 Z m 40.641,0 V 6.172 h 1.71 V 52 Z m -7.524,0 V 6.172 h 1.71 V 52 Z m 3.762,0 V 6.172 h 1.71 V 52 Z M 54.2647,25.552 53.2387,24.013 63.8977,8.566 v 3.021 z m 2.28,9.861 -16.188,-23.142 V 9.364 l 17.271,24.567 z m 0.057,-6.555 -1.026,-1.539 8.322,-11.856 v 2.964 z m -2.337,9.918 -13.908,-19.836 v -3.021 l 14.934,21.318 z m 4.617,-6.669 -1.026,-1.482 6.042,-8.607 v 2.964 z m -6.897,9.918 -11.628,-16.53 v -3.021 l 12.654,18.069 z M 86.9139,52 103.501,6.172 h 1.824 L 88.7379,52 Z m -7.98,0 16.587,-45.828 h 1.767 L 80.7579,52 Z m 3.99,0 16.53,-45.828 h 1.8811 L 84.7479,52 Z M 120.316,52 105.439,10.903 106.351,8.338 122.14,52 Z m -3.99,0 -12.825,-35.511 0.855,-2.622 L 118.15,52 Z m -3.99,0 -10.83,-29.982 0.912,-2.565 L 114.16,52 Z m -16.1311,-15.162 0.627,-1.71 h 7.5241 l 0.627,1.71 z m -1.368,3.819 0.627,-1.71 h 10.2601 l 0.627,1.71 z m -1.368,3.762 0.627,-1.71 h 12.9961 l 0.627,1.71 z M 146.332,28.63 v -1.71 h 22.401 v 1.71 z m 0,3.762 v -1.71 h 22.401 v 1.71 z m 0,3.762 v -1.71 h 22.401 v 1.71 z m -0.114,16.701 c -3.572,0 -6.821,-0.608 -9.747,-1.824 -2.888,-1.254 -5.377,-2.964 -7.467,-5.13 -2.09,-2.166 -3.705,-4.674 -4.845,-7.524 -1.14,-2.888 -1.71,-5.985 -1.71,-9.291 0,-3.306 0.57,-6.384 1.71,-9.234 1.14,-2.888 2.755,-5.415 4.845,-7.581 2.09,-2.166 4.579,-3.857 7.467,-5.073 2.926,-1.254 6.175,-1.881 9.747,-1.881 4.56,0 8.588,1.007 12.084,3.021 3.496,1.976 6.232,4.617 8.208,7.923 l -1.482,0.969 c -1.824,-3.078 -4.351,-5.548 -7.581,-7.41 -3.192,-1.862 -6.935,-2.793 -11.229,-2.793 -3.344,0 -6.365,0.57 -9.063,1.71 -2.698,1.14 -5.016,2.717 -6.954,4.731 -1.938,2.014 -3.439,4.37 -4.503,7.068 -1.026,2.66 -1.539,5.51 -1.539,8.55 0,3.04 0.513,5.909 1.539,8.607 1.064,2.66 2.565,4.997 4.503,7.011 1.938,2.014 4.256,3.591 6.954,4.731 2.698,1.14 5.719,1.71 9.063,1.71 3.268,0 6.232,-0.551 8.892,-1.653 2.66,-1.102 4.959,-2.641 6.897,-4.617 1.938,-1.976 3.439,-4.237 4.503,-6.783 h 1.881 c -1.102,2.888 -2.717,5.453 -4.845,7.695 -2.09,2.204 -4.598,3.933 -7.524,5.187 -2.926,1.254 -6.194,1.881 -9.804,1.881 z m 0,-7.524 c -3.382,0 -6.289,-0.722 -8.721,-2.166 -2.432,-1.482 -4.294,-3.458 -5.586,-5.928 -1.292,-2.47 -1.938,-5.187 -1.938,-8.151 0,-3.002 0.646,-5.719 1.938,-8.151 1.292,-2.47 3.154,-4.427 5.586,-5.871 2.432,-1.482 5.339,-2.223 8.721,-2.223 3.268,0 6.08,0.703 8.436,2.109 2.394,1.368 4.237,3.192 5.529,5.472 l -1.482,0.969 c -1.14,-2.052 -2.774,-3.686 -4.902,-4.902 -2.128,-1.254 -4.655,-1.881 -7.581,-1.881 -3.04,0 -5.662,0.665 -7.866,1.995 -2.166,1.292 -3.819,3.04 -4.959,5.244 -1.14,2.166 -1.71,4.579 -1.71,7.239 0,2.66 0.57,5.092 1.71,7.296 1.14,2.166 2.793,3.914 4.959,5.244 2.204,1.292 4.826,1.938 7.866,1.938 2.622,0 4.921,-0.494 6.897,-1.482 1.976,-1.026 3.553,-2.356 4.731,-3.99 h 2.166 c -1.33,2.204 -3.173,3.971 -5.529,5.301 -2.356,1.292 -5.111,1.938 -8.265,1.938 z m 0,3.762 c -3.04,0 -5.795,-0.513 -8.265,-1.539 -2.432,-1.064 -4.541,-2.508 -6.327,-4.332 -1.748,-1.824 -3.097,-3.933 -4.047,-6.327 -0.912,-2.432 -1.368,-5.035 -1.368,-7.809 0,-2.774 0.456,-5.358 1.368,-7.752 0.95,-2.432 2.299,-4.56 4.047,-6.384 1.786,-1.862 3.895,-3.306 6.327,-4.332 2.47,-1.026 5.225,-1.539 8.265,-1.539 3.914,0 7.334,0.855 10.26,2.565 2.964,1.672 5.263,3.895 6.897,6.669 l -1.482,0.969 c -1.52,-2.546 -3.61,-4.579 -6.27,-6.099 -2.66,-1.558 -5.795,-2.337 -9.405,-2.337 -3.724,0 -6.973,0.817 -9.747,2.451 -2.736,1.634 -4.845,3.838 -6.327,6.612 -1.482,2.736 -2.223,5.795 -2.223,9.177 0,3.344 0.741,6.403 2.223,9.177 1.482,2.774 3.591,4.978 6.327,6.612 2.774,1.634 6.023,2.451 9.747,2.451 3.762,0 7.03,-0.836 9.804,-2.508 2.774,-1.71 4.883,-3.952 6.327,-6.726 h 1.938 c -1.52,3.268 -3.838,5.928 -6.954,7.98 -3.116,2.014 -6.821,3.021 -11.115,3.021 z"
       fill="#880088"
       shape-rendering="crispEdges"
       id="path2" />
    <path
       d="m 21.9267,52 h -1 v 1 h 1 z m 0,-45.828 v -1 h -1 v 1 z m 1.71,0 h 1 v -1 h -1 z m 0,45.828 v 1 h 1 v -1 z m -9.234,0 h -1 v 1 h 1 z m 0,-45.828 v -1 h -1 v 1 z m 1.71,0 h 1 v -1 h -1 z m 0,45.828 v 1 h 1 v -1 z m 2.052,0 h -1 v 1 h 1 z m 0,-45.828 v -1 h -1 v 1 z m 1.71,0 h 1 v -1 h -1 z m 0,45.828 v 1 h 1 v -1 z m 2.052,0 h 1 V 6.172 h -1 -1 V 52 Z m 0,-45.828 v 1 h 1.71 v -1 -1 h -1.71 z m 1.71,0 h -1 V 52 h 1 1 V 6.172 Z m 0,45.828 v -1 h -1.71 v 1 1 h 1.71 z m -9.234,0 h 1 V 6.172 h -1 -1 V 52 Z m 0,-45.828 v 1 h 1.71 v -1 -1 h -1.71 z m 1.71,0 h -1 V 52 h 1 1 V 6.172 Z m 0,45.828 v -1 h -1.71 v 1 1 h 1.71 z m 2.052,0 h 1 V 6.172 h -1 -1 V 52 Z m 0,-45.828 v 1 h 1.71 v -1 -1 h -1.71 z m 1.71,0 h -1 V 52 h 1 1 V 6.172 Z m 0,45.828 v -1 h -1.71 v 1 1 h 1.71 z m 16.72,0 h -1 v 1 h 1 z m 0,-45.828 v -1 h -1 v 1 z m 1.71,0 h 1 v -1 h -1 z m 0,45.828 v 1 h 1 v -1 z m -9.234,0 h -1 v 1 h 1 z m 0,-45.828 v -1 h -1 v 1 z m 1.71,0 h 1 v -1 h -1 z m 0,45.828 v 1 h 1 v -1 z m 2.052,0 h -1 v 1 h 1 z m 0,-45.828 v -1 h -1 v 1 z m 1.71,0 h 1 v -1 h -1 z m 0,45.828 v 1 h 1 v -1 z m 38.931,0 h -1 v 1 h 1 z m 0,-45.828 v -1 h -1 v 1 z m 1.71,0 h 1 v -1 h -1 z m 0,45.828 v 1 h 1 v -1 z m -9.234,0 h -1 v 1 h 1 z m 0,-45.828 v -1 h -1 v 1 z m 1.71,0 h 1 v -1 h -1 z m 0,45.828 v 1 h 1 v -1 z m 2.052,0 h -1 v 1 h 1 z m 0,-45.828 v -1 h -1 v 1 z m 1.71,0 h 1 v -1 h -1 z m 0,45.828 v 1 h 1 v -1 z m -17.157,-26.448 -0.832,0.5547 0.8179,1.2269 0.8373,-1.2138 z m -1.026,-1.539 -0.8231,-0.5679 -0.3852,0.5582 0.3763,0.5644 z M 63.8977,8.566 h 1 V 5.35607 l -1.8231,2.64198 z m 0,3.021 0.8232,0.5678 0.1768,-0.2564 V 11.587 Z m -7.353,23.826 -0.8194,0.5732 0.8016,1.146 0.8252,-1.1292 z M 40.3567,12.271 h -1 v 0.315 l 0.1806,0.2582 z m 0,-2.907 0.8181,-0.57512 -1.8181,-2.5861 V 9.364 Z m 17.271,24.567 0.8074,0.59 0.4229,-0.5787 -0.4122,-0.5864 z m -1.026,-5.073 -0.832,0.5547 0.8122,1.2183 0.8393,-1.1998 z m -1.026,-1.539 -0.8185,-0.5745 -0.393,0.56 0.3795,0.5692 z m 8.322,-11.856 h 1 v -3.1652 l -1.8185,2.5907 z m 0,2.964 0.8194,0.5732 0.1806,-0.2582 v -0.315 z m -9.633,20.349 -0.8188,0.5741 0.8396,1.1975 0.8113,-1.2169 z M 40.3567,18.94 h -1 v 0.3156 l 0.1812,0.2585 z m 0,-3.021 0.819,-0.5738 -1.819,-2.5966 v 3.1704 z m 14.934,21.318 0.8321,0.5547 0.3791,-0.5687 -0.3922,-0.5598 z m 3.591,-5.13 -0.8222,0.5692 0.8153,1.1777 0.8246,-1.1712 z m -1.026,-1.482 -0.8185,-0.5746 -0.4005,0.5706 0.3968,0.5732 z m 6.042,-8.607 h 1 v -3.165 l -1.8185,2.5904 z m 0,2.964 0.8177,0.5757 0.1823,-0.259 V 24.982 Z m -11.913,17.043 -0.8179,0.5754 0.8244,1.172 0.8157,-1.1782 z m -11.628,-16.53 h -1 v 0.3165 l 0.1821,0.2589 z m 0,-3.021 0.8191,-0.5736 -1.8191,-2.5976 v 3.1712 z m 12.654,18.069 0.8222,0.5692 0.3963,-0.5725 -0.3994,-0.5703 z M 36.5947,52 h 1 V 6.172 h -1 -1 V 52 Z m 0,-45.828 v 1 h 1.71 v -1 -1 h -1.71 z m 1.71,0 h -1 V 52 h 1 1 V 6.172 Z m 0,45.828 v -1 h -1.71 v 1 1 h 1.71 z m -9.234,0 h 1 V 6.172 h -1 -1 V 52 Z m 0,-45.828 v 1 h 1.71 v -1 -1 h -1.71 z m 1.71,0 h -1 V 52 h 1 1 V 6.172 Z m 0,45.828 v -1 h -1.71 v 1 1 h 1.71 z m 2.052,0 h 1 V 6.172 h -1 -1 V 52 Z m 0,-45.828 v 1 h 1.71 v -1 -1 h -1.71 z m 1.71,0 h -1 V 52 h 1 1 V 6.172 Z m 0,45.828 v -1 h -1.71 v 1 1 h 1.71 z m 38.931,0 h 1 V 6.172 h -1 -1 V 52 Z m 0,-45.828 v 1 h 1.71 v -1 -1 h -1.71 z m 1.71,0 h -1 V 52 h 1 1 V 6.172 Z m 0,45.828 v -1 h -1.71 v 1 1 h 1.71 z m -9.234,0 h 1 V 6.172 h -1 -1 V 52 Z m 0,-45.828 v 1 h 1.71 v -1 -1 h -1.71 z m 1.71,0 h -1 V 52 h 1 1 V 6.172 Z m 0,45.828 v -1 h -1.71 v 1 1 h 1.71 z m 2.052,0 h 1 V 6.172 h -1 -1 V 52 Z m 0,-45.828 v 1 h 1.71 v -1 -1 h -1.71 z m 1.71,0 h -1 V 52 h 1 1 V 6.172 Z m 0,45.828 v -1 h -1.71 v 1 1 h 1.71 z m -17.157,-26.448 0.8321,-0.5547 -1.026,-1.539 -0.8321,0.5547 -0.832,0.5547 1.026,1.539 z m -1.026,-1.539 0.8231,0.5679 L 64.7208,9.13394 63.8977,8.566 63.0746,7.99805 52.4156,23.4451 Z M 63.8977,8.566 h -1 v 3.021 h 1 1 V 8.566 Z m 0,3.021 -0.8232,-0.5678 -9.633,13.965 0.8232,0.5678 0.8232,0.5678 9.633,-13.965 z m -7.353,23.826 0.8194,-0.5732 -16.188,-23.142 -0.8194,0.5732 -0.8194,0.5732 16.188,23.142 z M 40.3567,12.271 h 1 V 9.364 h -1 -1 v 2.907 z m 0,-2.907 -0.8181,0.57512 17.271,24.56698 0.8181,-0.5751 0.8181,-0.5751 -17.271,-24.56702 z m 17.271,24.567 -0.8074,-0.59 -1.083,1.482 0.8074,0.59 0.8074,0.59 1.083,-1.482 z m -1.026,-5.073 0.8321,-0.5547 -1.026,-1.539 -0.8321,0.5547 -0.832,0.5547 1.026,1.539 z m -1.026,-1.539 0.8185,0.5745 8.322,-11.856 -0.8185,-0.5745 -0.8185,-0.5745 -8.322,11.856 z m 8.322,-11.856 h -1 v 2.964 h 1 1 v -2.964 z m 0,2.964 -0.8194,-0.5732 -7.296,10.431 0.8194,0.5732 0.8195,0.5732 7.2959,-10.431 z m -9.633,20.349 0.8188,-0.5741 -13.908,-19.836 -0.8188,0.5741 -0.8188,0.5741 13.908,19.836 z M 40.3567,18.94 h 1 v -3.021 h -1 -1 v 3.021 z m 0,-3.021 -0.819,0.5738 14.934,21.318 0.819,-0.5738 0.819,-0.5738 -14.934,-21.318 z m 14.934,21.318 -0.832,-0.5547 -1.026,1.539 0.832,0.5547 0.8321,0.5547 1.026,-1.539 z m 3.591,-5.13 0.8222,-0.5692 -1.026,-1.482 -0.8222,0.5692 -0.8222,0.5692 1.026,1.482 z m -1.026,-1.482 0.8185,0.5746 6.042,-8.607 -0.8185,-0.5746 -0.8185,-0.5746 -6.042,8.607 z m 6.042,-8.607 h -1 v 2.964 h 1 1 v -2.964 z m 0,2.964 -0.8177,-0.5757 -5.016,7.125 0.8177,0.5757 0.8177,0.5757 5.016,-7.125 z m -11.913,17.043 0.8179,-0.5754 -11.628,-16.53 -0.8179,0.5754 -0.8179,0.5754 11.628,16.53 z m -11.628,-16.53 h 1 v -3.021 h -1 -1 v 3.021 z m 0,-3.021 -0.8191,0.5736 12.654,18.069 0.8191,-0.5736 0.8191,-0.5736 -12.654,-18.069 z m 12.654,18.069 -0.8222,-0.5692 -1.026,1.482 0.8222,0.5692 0.8222,0.5692 1.026,-1.482 z M 86.9139,52 85.9736,51.6597 85.4885,53 h 1.4254 z M 103.501,6.172 v -1 h -0.702 l -0.238,0.65966 z m 1.824,0 0.94,0.34033 0.485,-1.34033 h -1.425 z M 88.7379,52 v 1 h 0.7016 l 0.2388,-0.6597 z M 78.9339,52 77.9936,51.6597 77.5085,53 h 1.4254 z M 95.5209,6.172 v -1 h -0.7015 l -0.2388,0.65966 z m 1.767,0 0.9407,0.3393 0.4831,-1.3393 H 97.2879 Z M 80.7579,52 v 1 h 0.7024 l 0.2383,-0.6607 z m 2.166,0 L 81.9833,51.6607 81.5002,53 h 1.4237 z m 16.53,-45.828 v -1 h -0.7023 l -0.2383,0.6607 z m 1.8811,0 0.94,0.34033 0.485,-1.34033 h -1.425 z M 84.7479,52 v 1 h 0.7016 l 0.2387,-0.6597 z m 35.5681,0 -0.94,0.3404 0.238,0.6596 h 0.702 z m -14.877,-41.097 -0.942,-0.335 -0.12,0.338 0.122,0.3374 z m 0.912,-2.565 0.94,-0.34007 -0.948,-2.62254 -0.934,2.6276 z M 122.14,52 v 1 h 1.425 l -0.485,-1.3401 z m -5.814,0 -0.941,0.3397 0.239,0.6603 h 0.702 z m -12.825,-35.511 -0.951,-0.31 -0.106,0.3266 0.116,0.3231 z m 0.855,-2.622 0.94,-0.3402 -0.989,-2.7351 -0.902,2.7653 z M 118.15,52 v 1 h 1.425 l -0.485,-1.3402 z m -5.814,0 -0.941,0.3397 0.239,0.6603 h 0.702 z m -10.83,-29.982 -0.942,-0.335 -0.12,0.3377 0.121,0.337 z m 0.912,-2.565 0.941,-0.3394 -0.948,-2.6263 -0.935,2.6307 z M 114.16,52 v 1 h 1.424 l -0.483,-1.3394 z M 96.2049,36.838 95.2661,36.4937 94.7732,37.838 h 1.4317 z m 0.627,-1.71 v -1 h -0.6984 l -0.2404,0.6557 z m 7.5241,0 0.939,-0.3443 -0.241,-0.6557 h -0.698 z m 0.627,1.71 v 1 h 1.432 l -0.493,-1.3443 z m -10.1461,3.819 -0.9388,-0.3443 -0.4929,1.3443 h 1.4317 z m 0.627,-1.71 v -1 h -0.6984 l -0.2404,0.6557 z m 10.2601,0 0.939,-0.3443 -0.241,-0.6557 h -0.698 z m 0.627,1.71 v 1 h 1.432 l -0.493,-1.3443 z m -12.8821,3.762 -0.9388,-0.3443 -0.4929,1.3443 h 1.4317 z m 0.627,-1.71 v -1 h -0.6984 l -0.2404,0.6557 z m 12.9961,0 0.939,-0.3443 -0.241,-0.6557 h -0.698 z m 0.627,1.71 v 1 h 1.432 l -0.493,-1.3443 z M 86.9139,52 87.8542,52.3403 104.441,6.51233 103.501,6.172 102.561,5.83166 85.9736,51.6597 Z M 103.501,6.172 v 1 h 1.824 v -1 -1 h -1.824 z m 1.824,0 -0.94,-0.34034 L 87.7976,51.6597 88.7379,52 89.6783,52.3403 106.265,6.51233 Z M 88.7379,52 v -1 h -1.824 v 1 1 h 1.824 z m -9.804,0 0.9404,0.3403 L 96.4613,6.51233 95.5209,6.172 94.5806,5.83166 77.9936,51.6597 Z M 95.5209,6.172 v 1 h 1.767 v -1 -1 h -1.767 z m 1.767,0 -0.9406,-0.3393 -16.53,45.828 0.9406,0.3393 0.9407,0.3393 16.53,-45.828 z M 80.7579,52 v -1 h -1.824 v 1 1 h 1.824 z m 2.166,0 0.9407,0.3393 16.5304,-45.828 -0.9411,-0.3393 -0.9406,-0.3393 -16.53,45.828 z m 16.53,-45.828 v 1 h 1.8811 v -1 -1 h -1.8811 z m 1.8811,0 -0.94,-0.34034 L 83.8076,51.6597 84.7479,52 85.6882,52.3403 102.275,6.51233 Z M 84.7479,52 v -1 h -1.824 v 1 1 h 1.824 z m 35.5681,0 0.94,-0.3404 -14.877,-41.097 -0.94,0.3404 -0.94,0.3404 14.877,41.097 z m -14.877,-41.097 0.942,0.335 0.912,-2.56499 -0.942,-0.33501 -0.942,-0.33501 -0.912,2.56501 z m 0.912,-2.565 -0.94,0.34007 L 121.2,52.3401 122.14,52 123.08,51.6599 107.291,7.99793 Z M 122.14,52 v -1 h -1.824 v 1 1 h 1.824 z m -5.814,0 0.94,-0.3397 -12.825,-35.511 -0.94,0.3397 -0.941,0.3397 12.825,35.511 z m -12.825,-35.511 0.951,0.31 0.855,-2.622 -0.951,-0.31 -0.951,-0.31 -0.855,2.622 z m 0.855,-2.622 -0.94,0.3402 13.794,38.133 0.94,-0.3402 0.94,-0.3402 -13.794,-38.133 z M 118.15,52 v -1 h -1.824 v 1 1 h 1.824 z m -5.814,0 0.94,-0.3397 -10.83,-29.982 -0.94,0.3397 -0.941,0.3397 10.83,29.982 z m -10.83,-29.982 0.942,0.335 0.912,-2.565 -0.942,-0.335 -0.942,-0.335 -0.912,2.565 z m 0.912,-2.565 -0.941,0.3394 11.742,32.547 L 114.16,52 115.101,51.6606 103.359,19.1136 Z M 114.16,52 v -1 h -1.824 v 1 1 h 1.824 z m -17.9551,-15.162 0.9389,0.3443 0.627,-1.71 -0.9389,-0.3443 -0.9388,-0.3443 -0.627,1.71 z m 0.627,-1.71 v 1 h 7.5241 v -1 -1 h -7.5241 z m 7.5241,0 -0.939,0.3443 0.627,1.71 0.939,-0.3443 0.939,-0.3443 -0.627,-1.71 z m 0.627,1.71 v -1 h -8.7781 v 1 1 h 8.7781 z m -10.1461,3.819 0.9389,0.3443 0.627,-1.71 -0.9389,-0.3443 -0.9388,-0.3443 -0.627,1.71 z m 0.627,-1.71 v 1 h 10.2601 v -1 -1 H 95.4639 Z m 10.2601,0 -0.939,0.3443 0.627,1.71 0.939,-0.3443 0.939,-0.3443 -0.627,-1.71 z m 0.627,1.71 v -1 H 94.8369 v 1 1 h 11.5141 z m -12.8821,3.762 0.9389,0.3443 0.627,-1.71 -0.9389,-0.3443 -0.9388,-0.3443 -0.627,1.71 z m 0.627,-1.71 v 1 h 12.9961 v -1 -1 H 94.0959 Z m 12.9961,0 -0.939,0.3443 0.627,1.71 0.939,-0.3443 0.939,-0.3443 -0.627,-1.71 z m 0.627,1.71 v -1 H 93.4689 v 1 1 H 107.719 Z M 146.332,28.63 h -1 v 1 h 1 z m 0,-1.71 v -1 h -1 v 1 z m 22.401,0 h 1 v -1 h -1 z m 0,1.71 v 1 h 1 v -1 z m -22.401,3.762 h -1 v 1 h 1 z m 0,-1.71 v -1 h -1 v 1 z m 22.401,0 h 1 v -1 h -1 z m 0,1.71 v 1 h 1 v -1 z m -22.401,3.762 h -1 v 1 h 1 z m 0,-1.71 v -1 h -1 v 1 z m 22.401,0 h 1 v -1 h -1 z m 0,1.71 v 1 h 1 v -1 z m -32.262,14.877 -0.398,0.9173 0.007,0.0031 0.007,0.003 z m -7.467,-5.13 0.72,-0.6944 z m -4.845,-7.524 -0.93,0.3672 0.002,0.0042 z m 0,-18.525 0.929,0.3714 0.001,-0.0042 z m 4.845,-7.581 0.72,0.6944 v 0 z m 7.467,-5.073 0.388,0.92165 0.006,-0.00251 z m 21.831,1.14 -0.499,0.86653 0.007,0.00403 z m 8.208,7.923 0.548,0.837 0.803,-0.5256 -0.492,-0.8244 z m -1.482,0.969 -0.86,0.5098 0.533,0.8991 0.875,-0.5719 z m -7.581,-7.41 -0.504,0.8638 0.005,0.0026 z M 137.155,8.737 136.766,7.81585 Z m -6.954,4.731 -0.72,-0.6934 z m -4.503,7.068 -0.93,-0.3669 -0.003,0.007 z m 0,17.157 -0.934,0.3554 0.003,0.008 0.003,0.008 z m 4.503,7.011 0.721,-0.6934 z m 24.909,4.788 -0.382,-0.9239 z m 6.897,-4.617 0.714,0.7002 v 0 z m 4.503,-6.783 v -1 h -0.666 l -0.256,0.6144 z m 1.881,0 0.935,0.3565 0.517,-1.3565 h -1.452 z m -4.845,7.695 -0.725,-0.6884 v 3e-4 z m -7.524,5.187 -0.394,-0.9191 z m -18.525,-7.809 -0.52,0.854 0.01,0.0059 z m -5.586,-5.928 0.886,-0.4635 z m 0,-16.302 0.883,0.4692 0.003,-0.0057 z m 5.586,-5.871 0.511,0.8599 0.01,-0.006 z m 17.157,-0.114 -0.512,0.8587 0.008,0.0049 0.008,0.0046 z m 5.529,5.472 0.548,0.837 0.785,-0.5136 -0.463,-0.8164 z m -1.482,0.969 -0.874,0.4856 0.522,0.9395 0.9,-0.5881 z m -4.902,-4.902 -0.507,0.8616 0.011,0.0066 z m -15.447,0.114 0.513,0.8588 0.004,-0.0026 z m -4.959,5.244 0.885,0.4658 0.003,-0.0064 z m 0,14.535 -0.888,0.4594 0.003,0.0063 z m 4.959,5.244 -0.523,0.8522 0.009,0.0053 0.009,0.0052 z m 14.763,0.456 0.447,0.8944 0.007,-0.0034 0.007,-0.0035 z m 4.731,-3.99 v -1 h -0.512 l -0.299,0.4152 z m 2.166,0 0.856,0.5167 0.916,-1.5167 h -1.772 z m -5.529,5.301 0.481,0.8769 0.011,-0.0061 z m -16.53,4.161 -0.401,0.9162 0.009,0.0037 0.009,0.0036 z m -6.327,-4.332 -0.722,0.6919 0.008,0.0077 z m -4.047,-6.327 -0.936,0.3511 0.003,0.0089 0.004,0.0088 z m 0,-15.561 -0.931,-0.3639 -0.003,0.0079 z m 4.047,-6.384 -0.721,-0.6922 -0.001,3e-4 z m 6.327,-4.332 -0.383,-0.92351 -0.005,0.00215 z m 18.525,1.026 -0.504,0.8634 0.006,0.0038 0.007,0.0038 z m 6.897,6.669 0.548,0.837 0.798,-0.5223 -0.484,-0.8222 z m -1.482,0.969 -0.858,0.5126 0.534,0.8944 0.872,-0.57 z m -6.27,-6.099 -0.505,0.8629 0.009,0.0053 z m -19.152,0.114 -0.507,-0.8616 -0.005,0.0031 z m -6.327,6.612 0.88,0.4763 0.002,-0.0051 z m 6.327,24.966 -0.512,0.8586 0.005,0.003 z m 19.551,-0.057 0.516,0.8565 0.009,-0.0052 z m 6.327,-6.726 v -1 h -0.607 l -0.28,0.5383 z m 1.938,0 0.907,0.4217 0.661,-1.4217 h -1.568 z m -6.954,7.98 0.543,0.8399 0.007,-0.0047 z M 146.332,28.63 h 1 v -1.71 h -1 -1 v 1.71 z m 0,-1.71 v 1 h 22.401 v -1 -1 h -22.401 z m 22.401,0 h -1 v 1.71 h 1 1 v -1.71 z m 0,1.71 v -1 h -22.401 v 1 1 h 22.401 z m -22.401,3.762 h 1 v -1.71 h -1 -1 v 1.71 z m 0,-1.71 v 1 h 22.401 v -1 -1 h -22.401 z m 22.401,0 h -1 v 1.71 h 1 1 v -1.71 z m 0,1.71 v -1 h -22.401 v 1 1 h 22.401 z m -22.401,3.762 h 1 v -1.71 h -1 -1 v 1.71 z m 0,-1.71 v 1 h 22.401 v -1 -1 h -22.401 z m 22.401,0 h -1 v 1.71 h 1 1 v -1.71 z m 0,1.71 v -1 h -22.401 v 1 1 h 22.401 z m -22.515,16.701 v -1 c -3.457,0 -6.573,-0.588 -9.363,-1.7474 l -0.384,0.9234 -0.384,0.9234 c 3.063,1.2726 6.444,1.9006 10.131,1.9006 z m -9.747,-1.824 0.399,-0.9173 c -2.773,-1.204 -5.152,-2.8401 -7.146,-4.9071 l -0.72,0.6944 -0.719,0.6944 c 2.185,2.265 4.785,4.0489 7.788,5.3529 z m -7.467,-5.13 0.72,-0.6944 c -1.998,-2.071 -3.543,-4.4687 -4.636,-7.201 l -0.929,0.3714 -0.928,0.3714 c 1.187,2.9677 2.872,5.586 5.054,7.847 z m -4.845,-7.524 0.93,-0.3672 c -1.091,-2.7636 -1.64,-5.7353 -1.64,-8.9238 h -1 -1 c 0,3.4235 0.591,6.6458 1.78,9.6582 z m -1.71,-9.291 h 1 c 0,-3.1887 0.55,-6.1396 1.639,-8.8626 l -0.929,-0.3714 -0.928,-0.3714 c -1.191,2.977 -1.782,6.1821 -1.782,9.6054 z m 1.71,-9.234 0.93,0.3672 c 1.094,-2.7702 2.639,-5.1851 4.635,-7.2538 l -0.72,-0.6944 -0.719,-0.6944 c -2.184,2.2632 -3.869,4.9024 -5.056,7.9082 z m 4.845,-7.581 0.72,0.6944 c 1.992,-2.0646 4.367,-3.68009 7.135,-4.84577 L 136.471,7.198 136.083,6.27636 c -3.007,1.26633 -5.61,3.03285 -7.798,5.30024 z m 7.467,-5.073 0.394,0.91914 c 2.787,-1.1945 5.9,-1.80014 9.353,-1.80014 v -1 -1 c -3.691,0 -7.076,0.64836 -10.141,1.96185 z m 9.747,-1.881 v 1 c 4.408,0 8.26,0.97188 11.585,2.8875 l 0.499,-0.8665 0.499,-0.8665 C 155.135,5.35912 150.93,4.317 146.218,4.317 Z m 12.084,3.021 -0.492,0.87056 c 3.352,1.89444 5.959,4.41494 7.842,7.56544 l 0.858,-0.513 0.859,-0.513 C 165.3,12.2865 162.435,9.52502 158.794,7.46744 Z m 8.208,7.923 -0.547,-0.837 -1.482,0.969 0.547,0.837 0.548,0.837 1.482,-0.969 z m -1.482,0.969 0.861,-0.5098 c -1.916,-3.2322 -4.57,-5.8225 -7.942,-7.76656 l -0.5,0.86636 -0.499,0.8664 c 3.087,1.7799 5.487,4.1296 7.22,7.0534 z m -7.581,-7.41 0.504,-0.86378 C 154.583,6.99144 150.66,6.027 146.218,6.027 v 1 1 c 4.146,0 7.71,0.89756 10.725,2.6568 z M 146.218,7.027 v -1 c -3.459,0 -6.615,0.58995 -9.452,1.78885 l 0.389,0.92115 0.389,0.92114 C 140.103,8.57705 142.989,8.027 146.218,8.027 Z m -9.063,1.71 -0.389,-0.92115 c -2.817,1.19013 -5.249,2.84255 -7.285,4.95875 l 0.72,0.6934 0.721,0.6934 c 1.839,-1.9118 4.043,-3.4134 6.622,-4.50326 z m -6.954,4.731 -0.72,-0.6934 c -2.032,2.1117 -3.603,4.5797 -4.713,7.3945 l 0.93,0.3669 0.931,0.3669 c 1.017,-2.5812 2.449,-4.8252 4.293,-6.7415 z m -4.503,7.068 -0.933,-0.3599 c -1.073,2.7823 -1.606,5.7551 -1.606,8.9099 h 1 1 c 0,-2.9252 0.493,-5.6524 1.472,-8.1901 z m -1.539,8.55 h -1 c 0,3.1549 0.533,6.145 1.605,8.9624 l 0.934,-0.3554 0.935,-0.3554 c -0.981,-2.5786 -1.474,-5.3265 -1.474,-8.2516 z m 1.539,8.607 -0.928,0.3714 c 1.11,2.7767 2.681,5.2237 4.711,7.333 l 0.72,-0.6934 0.721,-0.6934 c -1.846,-1.9187 -3.278,-4.1457 -4.295,-6.689 z m 4.503,7.011 -0.72,0.6934 c 2.036,2.1162 4.468,3.7686 7.285,4.9587 l 0.389,-0.9211 0.389,-0.9211 c -2.579,-1.0899 -4.783,-2.5915 -6.622,-4.5033 z m 6.954,4.731 -0.389,0.9211 c 2.837,1.1989 5.993,1.7889 9.452,1.7889 v -1 -1 c -3.229,0 -6.115,-0.55 -8.674,-1.6311 z m 9.063,1.71 v 1 c 3.382,0 6.478,-0.5705 9.275,-1.7291 l -0.383,-0.9239 -0.382,-0.9239 c -2.524,1.0454 -5.355,1.5769 -8.51,1.5769 z m 8.892,-1.653 0.383,0.9239 c 2.779,-1.1514 5.192,-2.7647 7.228,-4.8407 l -0.714,-0.7002 -0.714,-0.7002 c -1.84,1.876 -4.025,3.3407 -6.565,4.3933 z m 6.897,-4.617 0.714,0.7002 c 2.027,-2.0664 3.599,-4.4341 4.712,-7.0976 l -0.923,-0.3856 -0.922,-0.3856 c -1.015,2.4285 -2.445,4.5828 -4.295,6.4684 z m 4.503,-6.783 v 1 h 1.881 v -1 -1 h -1.881 z m 1.881,0 -0.934,-0.3565 c -1.055,2.7646 -2.599,5.2168 -4.636,7.3631 l 0.725,0.6884 0.726,0.6884 c 2.218,-2.3377 3.904,-5.0155 5.054,-8.0269 z m -4.845,7.695 -0.725,-0.6881 c -1.992,2.1005 -4.386,3.753 -7.193,4.956 l 0.394,0.9191 0.394,0.9191 c 3.045,-1.305 5.668,-3.1105 7.856,-5.418 z m -7.524,5.187 -0.394,-0.9191 c -2.786,1.1939 -5.917,1.8001 -9.41,1.8001 v 1 1 c 3.728,0 7.132,-0.6478 10.198,-1.9619 z m -9.804,-5.643 v -1 c -3.237,0 -5.96,-0.6901 -8.21,-2.0259 l -0.511,0.8599 -0.51,0.8599 c 2.614,1.5522 5.705,2.3061 9.231,2.3061 z m -8.721,-2.166 0.521,-0.8539 c -2.281,-1.3897 -4.015,-3.2322 -5.221,-5.5376 l -0.886,0.4635 -0.886,0.4635 c 1.378,2.6346 3.368,4.7441 5.952,6.3184 z m -5.586,-5.928 0.886,-0.4635 c -1.212,-2.3179 -1.824,-4.8744 -1.824,-7.6875 h -1 -1 c 0,3.1149 0.681,5.9924 2.052,8.6145 z m -1.938,-8.151 h 1 c 0,-2.8535 0.613,-5.4071 1.821,-7.6818 l -0.883,-0.4692 -0.883,-0.4692 c -1.375,2.5893 -2.055,5.4697 -2.055,8.6202 z m 1.938,-8.151 0.886,0.4635 c 1.205,-2.3031 2.936,-4.1239 5.211,-5.4746 l -0.511,-0.8599 -0.51,-0.8599 c -2.589,1.5373 -4.583,3.6305 -5.962,6.2674 z m 5.586,-5.871 0.521,0.8539 c 2.248,-1.3698 4.967,-2.0769 8.2,-2.0769 v -1 -1 c -3.531,0 -6.625,0.7749 -9.241,2.3691 z m 8.721,-2.223 v 1 c 3.123,0 5.75,0.6705 7.924,1.9677 l 0.512,-0.8587 0.513,-0.8587 c -2.539,-1.5148 -5.535,-2.2503 -8.949,-2.2503 z m 8.436,2.109 -0.496,0.8682 c 2.247,1.2837 3.957,2.9815 5.155,5.0968 l 0.87,-0.493 0.87,-0.493 c -1.385,-2.4447 -3.361,-4.3949 -5.903,-5.8472 z m 5.529,5.472 -0.547,-0.837 -1.482,0.969 0.547,0.837 0.548,0.837 1.482,-0.969 z m -1.482,0.969 0.874,-0.4856 c -1.232,-2.2189 -3,-3.9822 -5.28,-5.2846 l -0.496,0.8682 -0.496,0.8682 c 1.977,1.1296 3.477,2.6343 4.524,4.5194 z m -4.902,-4.902 0.508,-0.8615 c -2.308,-1.3602 -5.017,-2.0195 -8.089,-2.0195 v 1 1 c 2.781,0 5.126,0.5947 7.074,1.7425 z m -7.581,-1.881 v -1 c -3.189,0 -5.996,0.6989 -8.382,2.1388 l 0.516,0.8562 0.517,0.8562 c 2.022,-1.2201 4.458,-1.8512 7.349,-1.8512 z m -7.866,1.995 -0.512,-0.8588 c -2.323,1.3858 -4.108,3.271 -5.335,5.6434 l 0.888,0.4594 0.888,0.4594 c 1.053,-2.0356 2.575,-3.6464 4.584,-4.8446 z m -4.959,5.244 -0.885,-0.4657 c -1.222,2.3218 -1.825,4.8968 -1.825,7.7047 h 1 1 c 0,-2.5121 0.537,-4.7631 1.595,-6.7733 z m -1.71,7.239 h -1 c 0,2.8081 0.603,5.3993 1.822,7.7554 l 0.888,-0.4594 0.888,-0.4594 c -1.061,-2.0519 -1.598,-4.3247 -1.598,-6.8366 z m 1.71,7.296 -0.885,0.4657 c 1.227,2.3313 3.008,4.2103 5.321,5.6305 l 0.523,-0.8522 0.524,-0.8522 c -2.02,-1.2398 -3.545,-2.8568 -4.598,-4.8575 z m 4.959,5.244 -0.505,0.8627 c 2.384,1.3976 5.187,2.0753 8.371,2.0753 v -1 -1 c -2.896,0 -5.336,-0.6143 -7.36,-1.8007 z m 7.866,1.938 v 1 c 2.749,0 5.206,-0.5183 7.344,-1.5876 l -0.447,-0.8944 -0.447,-0.8944 c -1.813,0.9067 -3.954,1.3764 -6.45,1.3764 z m 6.897,-1.482 0.461,0.8875 c 2.1,-1.0904 3.803,-2.5189 5.081,-4.2927 l -0.811,-0.5848 -0.811,-0.5848 c -1.077,1.4942 -2.529,2.7257 -4.381,3.6873 z m 4.731,-3.99 v 1 h 2.166 v -1 -1 h -2.166 z m 2.166,0 -0.856,-0.5167 c -1.236,2.0489 -2.95,3.6971 -5.164,4.9469 l 0.491,0.8708 0.492,0.8708 c 2.498,-1.4102 4.47,-3.296 5.893,-5.6551 z m -5.529,5.301 -0.481,-0.8768 c -2.184,1.1982 -4.769,1.8148 -7.784,1.8148 v 1 1 c 3.293,0 6.219,-0.6754 8.746,-2.0612 z m -8.265,5.7 v -1 c -2.926,0 -5.548,-0.4934 -7.881,-1.4625 l -0.384,0.9235 -0.383,0.9235 c 2.607,1.0829 5.494,1.6155 8.648,1.6155 z m -8.265,-1.539 0.401,-0.9162 c -2.319,-1.0146 -4.321,-2.3867 -6.013,-4.1154 l -0.715,0.6996 -0.714,0.6996 c 1.879,1.9193 4.096,3.4352 6.64,4.5486 z m -6.327,-4.332 0.722,-0.6919 c -1.657,-1.7289 -2.936,-3.7276 -3.839,-6.0039 l -0.93,0.3688 -0.929,0.3688 c 0.996,2.5117 2.415,4.731 4.254,6.6501 z m -4.047,-6.327 0.937,-0.3511 c -0.868,-2.3123 -1.305,-4.7956 -1.305,-7.4579 h -1 -1 c 0,2.8857 0.475,5.6084 1.432,8.1601 z m -1.368,-7.809 h 1 c 0,-2.6625 0.438,-5.1248 1.303,-7.396 l -0.935,-0.356 -0.934,-0.356 c -0.959,2.5168 -1.434,5.2225 -1.434,8.108 z m 1.368,-7.752 0.932,0.3638 c 0.904,-2.3141 2.183,-4.3297 3.837,-6.0559 l -0.722,-0.6919 -0.722,-0.6919 c -1.841,1.9217 -3.26,4.1622 -4.256,6.712 z m 4.047,-6.384 0.722,0.6922 c 1.689,-1.7614 3.684,-3.1285 5.994,-4.1028 l -0.389,-0.9214 -0.388,-0.92136 c -2.555,1.07766 -4.778,2.59856 -6.66,4.56116 z m 6.327,-4.332 0.384,0.9235 c 2.333,-0.9691 4.955,-1.4625 7.881,-1.4625 v -1 -1 c -3.154,0 -6.041,0.53256 -8.648,1.6155 z m 8.265,-1.539 v 1 c 3.765,0 7.005,0.8209 9.756,2.4284 l 0.504,-0.8634 0.505,-0.8634 C 153.881,8.96808 150.282,8.079 146.218,8.079 Z m 10.26,2.565 -0.491,0.871 c 2.82,1.5906 4.987,3.6919 6.527,6.3055 l 0.861,-0.5075 0.862,-0.5075 c -1.729,-2.9344 -4.159,-5.2791 -7.267,-7.0325 z m 6.897,6.669 -0.547,-0.837 -1.482,0.969 0.547,0.837 0.548,0.837 1.482,-0.969 z m -1.482,0.969 0.859,-0.5126 c -1.611,-2.6988 -3.828,-4.8522 -6.633,-6.4546 l -0.496,0.8682 -0.496,0.8682 c 2.516,1.4376 4.479,3.3502 5.908,5.7434 z m -6.27,-6.099 0.506,-0.8629 C 153.291,10.658 149.975,9.846 146.218,9.846 v 1 1 c 3.463,0 6.418,0.746 8.9,2.1999 z m -9.405,-2.337 v -1 c -3.874,0 -7.304,0.8514 -10.254,2.5894 l 0.507,0.8616 0.508,0.8616 c 2.597,-1.53 5.665,-2.3126 9.239,-2.3126 z m -9.747,2.451 -0.512,-0.8585 c -2.89,1.7258 -5.128,4.0628 -6.697,6.9993 l 0.882,0.4712 0.882,0.4712 c 1.395,-2.6115 3.376,-4.6825 5.958,-6.2247 z m -6.327,6.612 -0.879,-0.4763 c -1.568,2.8948 -2.344,6.1198 -2.344,9.6533 h 1 1 c 0,-3.2305 0.707,-6.1235 2.103,-8.7007 z m -2.223,9.177 h -1 c 0,3.4977 0.777,6.7201 2.341,9.6482 l 0.882,-0.4712 0.882,-0.4712 c -1.399,-2.6199 -2.105,-5.5155 -2.105,-8.7058 z m 2.223,9.177 -0.882,0.4712 c 1.569,2.9365 3.807,5.2735 6.697,6.9993 l 0.512,-0.8585 0.513,-0.8585 c -2.582,-1.5422 -4.563,-3.6132 -5.958,-6.2247 z m 6.327,6.612 -0.507,0.8616 c 2.95,1.738 6.38,2.5894 10.254,2.5894 v -1 -1 c -3.574,0 -6.642,-0.7826 -9.239,-2.3126 z m 9.747,2.451 v 1 c 3.914,0 7.367,-0.8713 10.32,-2.6515 l -0.516,-0.8565 -0.516,-0.8565 c -2.594,1.5638 -5.678,2.3645 -9.288,2.3645 z m 9.804,-2.508 0.525,0.8513 c 2.921,-1.8006 5.158,-4.1745 6.689,-7.1156 l -0.887,-0.4617 -0.887,-0.4617 c -1.357,2.6069 -3.337,4.717 -5.964,6.3364 z m 6.327,-6.726 v 1 h 1.938 v -1 -1 h -1.938 z m 1.938,0 -0.906,-0.4217 c -1.439,3.0936 -3.631,5.6128 -6.598,7.5665 l 0.55,0.8352 0.55,0.8352 c 3.265,-2.1503 5.71,-4.9511 7.311,-8.3935 z m -6.954,7.98 -0.543,-0.8398 c -2.93,1.8938 -6.439,2.8608 -10.572,2.8608 v 1 1 c 4.456,0 8.356,-1.047 11.658,-3.1812 z"
       fill="#880088"
       fill-opacity="0.16"
       mask="url(#path-1-outside-1_27_10)"
       id="path3" />
  </g>
  <defs
     id="defs7">
    <filter
       id="filter0_d_27_10"
       x="9.40274"
       y="4.31699"
       width="164.44"
       height="57.538"
       filterUnits="userSpaceOnUse"
       color-interpolation-filters="sRGB">
      <feFlood
         flood-opacity="0"
         result="BackgroundImageFix"
         id="feFlood5" />
      <feColorMatrix
         in="SourceAlpha"
         type="matrix"
         values="0 0 0 0 0 0 0 0 0 0 0 0 0 0 0 0 0 0 127 0"
         result="hardAlpha"
         id="feColorMatrix5" />
      <feOffset
         dy="4"
         id="feOffset5" />
      <feGaussianBlur
         stdDeviation="2"
         id="feGaussianBlur5" />
      <feComposite
         in2="hardAlpha"
         operator="out"
         id="feComposite5" />
      <feColorMatrix
         type="matrix"
         values="0 0 0 0 0 0 0 0 0 0 0 0 0 0 0 0 0 0 0.1 0"
         id="feColorMatrix6" />
      <feBlend
         mode="normal"
         in2="BackgroundImageFix"
         result="effect1_dropShadow_27_10"
         id="feBlend6" />
      <feBlend
         mode="normal"
         in="SourceGraphic"
         in2="effect1_dropShadow_27_10"
         result="shape"
         id="feBlend7" />
    </filter>
  </defs>
</svg>
